<?xml version="1.0" encoding="utf-8"?>
<!-- Generator: Adobe Illustrator 24.0.2, SVG Export Plug-In . SVG Version: 6.00 Build 0)  -->
<svg version="1.2" baseProfile="tiny-ps" id="Layer_1" xmlns="http://www.w3.org/2000/svg" xmlns:xlink="http://www.w3.org/1999/xlink"
 viewBox="0 0 100 100" xml:space="preserve">


<title> Seahaven industries </title>

<path fill="#A8D6EF" d="M6.3,55.1C6.3,55.1,6.3,55.1,6.3,55.1C6.3,55.1,6.3,55.1,6.3,55.1C6.3,55.1,6.3,55.1,6.3,55.1z"/>
<g>
	<path fill="#2BABE2" d="M19.4,43.8c-0.5-0.3-1-0.5-1.6-0.6c-0.6-0.1-1.2-0.2-1.8,0c-0.1,0-0.2,0.1-0.3,0.1
		c-0.1,0.1-0.2,0.2-0.2,0.3c0,0.2,0.1,0.3,0.2,0.3c0.3,0.1,0.5,0.1,0.8,0.2c0.6,0.1,1.2,0.2,1.7,0.3c0.5,0.1,1,0.3,1.5,0.7
		c0.5,0.4,0.8,0.9,0.8,1.6c0.1,1.5-0.5,2.6-1.8,3.4c-0.6,0.3-1.2,0.5-1.9,0.6c-0.8,0.1-1.6,0.1-2.4-0.1c-0.8-0.2-1.6-0.5-2.3-1
		c-0.1-0.1-0.3-0.2-0.4-0.3c0.1-0.3,0.3-0.5,0.4-0.7c0.1-0.3,0.3-0.5,0.4-0.8c0.1-0.2,0.3-0.5,0.4-0.7c0.1,0.1,0.2,0.1,0.3,0.2
		c1.1,0.7,2.2,1,3.5,0.9c0.2,0,0.4-0.1,0.6-0.2c0.1,0,0.2-0.1,0.2-0.2c0.2-0.2,0.1-0.4-0.1-0.6c-0.2-0.1-0.4-0.1-0.6-0.2
		c-0.5-0.1-0.9-0.2-1.4-0.2c-0.5-0.1-0.9-0.2-1.3-0.4c-0.3-0.1-0.6-0.3-0.8-0.5c-0.6-0.5-0.8-1.1-0.8-1.9c0.1-1.3,0.7-2.2,1.8-2.8
		c0.5-0.3,1-0.5,1.6-0.5c1.1-0.2,2.2-0.1,3.2,0.2c0.4,0.1,0.7,0.3,1,0.5c0.2,0.1,0.3,0.2,0.5,0.4C20.2,42.4,19.8,43.1,19.4,43.8z"/>
	<g>
		<path fill="#2A2627" d="M84.1,54.2c0.4,0.3,0.7,0.4,1.2,0.3c0.1,0,0.3,0,0.3-0.2c-0.1-0.1-0.2-0.1-0.3-0.2c-0.2,0-0.3-0.1-0.5-0.1
			c-0.1,0-0.2-0.1-0.3-0.1c-0.5-0.2-0.7-0.7-0.4-1.2c0.1-0.3,0.3-0.4,0.6-0.5c0.6-0.2,1.1-0.2,1.7,0.1c0,0,0.1,0,0.1,0.1
			c0,0,0,0,0.1,0.1c0,0.1-0.1,0.2-0.2,0.3c-0.1,0.1-0.1,0.2-0.2,0.3C85.8,53,85.4,52.9,85,53c0,0-0.1,0.1-0.1,0.1
			c0.1,0.1,0.2,0.1,0.4,0.2c0.2,0,0.4,0.1,0.6,0.1c0.7,0.2,0.8,0.7,0.5,1.3c-0.1,0.2-0.3,0.4-0.5,0.5c-0.7,0.3-1.5,0.2-2.1-0.3
			c0.1-0.1,0.1-0.2,0.2-0.4C84,54.5,84.1,54.4,84.1,54.2z"/>
		<path fill="#2A2627" d="M82.6,52.3c0,0.2,0,0.4-0.1,0.6c0,0.1,0,0.1-0.1,0.2c-0.4,0-0.7,0-1.1,0c0,0.1,0,0.2-0.1,0.3
			c0.3,0,0.6,0,0.9,0c0.1,0.3-0.1,0.5-0.1,0.7c-0.3,0-0.6,0-0.9,0c0,0.1-0.1,0.1-0.1,0.2c0,0.1,0,0.1,0,0.2c0,0,0.1,0,0.1,0
			c0.2,0,0.5,0,0.7,0c0.1,0,0.2,0,0.3,0c0.1,0.2,0,0.3,0,0.4c0,0.1,0,0.2-0.1,0.4c-0.2,0-0.4,0-0.7,0c-0.2,0-0.4,0-0.7,0
			c-0.2,0-0.4,0-0.7,0c0-0.5,0.1-1,0.2-1.5c0.1-0.5,0.1-1,0.2-1.5C80.9,52.2,82.3,52.2,82.6,52.3z"/>
		<g>
			<path fill="#252122" d="M78.6,40.8c0.9,0,1.8,0,2.8,0c1,1.7,2,3.4,3,5.2c0-0.1,0.1-0.1,0.1-0.2c0.2-1.5,0.4-3,0.5-4.4
				c0-0.2,0-0.4,0.1-0.6c0.4-0.1,2.4,0,2.7,0c0,0.3-1,8.8-1.2,9.6c-0.4,0.1-0.9,0-1.4,0c-0.5,0-0.9,0-1.4,0c-0.5-0.9-1-1.7-1.5-2.6
				c-0.5-0.9-1-1.7-1.5-2.6c-0.1,0.2-0.1,0.3-0.1,0.5c0,0.2,0,0.3-0.1,0.5c0,0.2,0,0.3-0.1,0.5c0,0.2,0,0.3-0.1,0.5
				c0,0.2,0,0.3-0.1,0.5c0,0.2,0,0.3-0.1,0.5c0,0.2,0,0.3-0.1,0.5c0,0.2,0,0.3-0.1,0.5c0,0.2,0,0.3,0,0.5c0,0.2,0,0.3-0.1,0.5
				c0,0.2,0,0.3-0.1,0.5c-0.4,0.1-2.4,0.1-2.7,0C77.4,50.1,78.5,41.5,78.6,40.8z"/>
			<path fill="#252122" d="M39.5,50.5c0-0.1,0-0.2,0-0.3c0.4-3.1,0.8-6.2,1.1-9.3c0.2,0,0.5,0,0.7,0c0.2,0,0.5,0,0.7,0
				c0.2,0,0.4,0,0.7,0c0.2,0,0.4,0,0.7,0c0,0.6-0.1,1.2-0.2,1.8c-0.1,0.6-0.1,1.2-0.2,1.7c0,0,0,0,0,0c0,0,0,0,0,0c1,0,2,0,3,0
				c0,0,0.1,0,0.1,0c0.1-1.2,0.3-2.3,0.4-3.5c0,0,0,0,0,0c0,0,0,0,0,0c0.1,0,0.2,0,0.4,0c0.8,0,1.5,0,2.3,0c0,0.1,0,0.2,0,0.2
				c-0.1,0.8-0.2,1.6-0.3,2.4c-0.1,0.8-0.2,1.5-0.3,2.3c-0.1,0.8-0.2,1.5-0.3,2.3c-0.1,0.7-0.2,1.5-0.3,2.2c0,0.1,0,0.2,0,0.2
				c-0.3,0.1-2.4,0.1-2.8,0c0.1-1.2,0.3-2.3,0.4-3.5c0,0,0-0.1,0-0.1c0,0,0,0,0,0c-0.9,0-1.8,0-2.7,0c-0.1,0-0.2,0-0.3,0
				c0,0,0,0-0.1,0c-0.1,1.2-0.3,2.3-0.4,3.5C41.4,50.5,40.5,50.5,39.5,50.5z"/>
			<path fill="#252122" d="M54.2,40.8c0.9,0,1.7,0,2.6,0c0.2,0.4,2.8,9.3,2.8,9.6c0,0,0,0,0,0c0,0,0,0,0,0c-0.8,0-1.7,0-2.5,0
				c-0.1,0-0.1,0-0.2,0c-0.2-0.5-0.3-1-0.4-1.5c-0.3-0.1-2.8-0.1-3.8,0c-0.3,0.5-0.5,1-0.8,1.6c-0.3,0.1-2.4,0.1-2.8,0c0,0,0,0,0,0
				c0,0,0,0,0,0c1.7-3.2,3.4-6.3,5.1-9.5C54.1,40.9,54.1,40.8,54.2,40.8z M55.1,44.1C55.1,44.1,55,44.1,55.1,44.1
				c-0.5,0.9-0.9,1.7-1.4,2.5c0,0,0,0.1,0,0.1c0.2,0,0.4,0,0.7,0c0.2,0,0.5,0,0.7,0c0.2,0,0.4,0,0.7,0C55.6,45.8,55.3,45,55.1,44.1z
				"/>
			<path fill="#2BABE2" d="M33.4,40.8c0.9,0,1.7,0,2.6,0c0,0,0,0,0,0c0,0,0,0,0,0c0,0.1,0.1,0.2,0.1,0.3c0.9,3.1,1.8,6.1,2.7,9.2
				c0,0.1-0.1,0.1-0.2,0.1c-0.8,0-1.6,0-2.5,0c0,0-0.1,0-0.1,0c-0.2-0.5-0.3-1.1-0.5-1.6c-0.3-0.1-3.3-0.1-3.8,0
				c-0.3,0.5-0.5,1-0.8,1.5c-0.3,0.1-2.2,0.1-2.7,0c-0.1-0.1,0-0.2,0.1-0.2c0.5-1,1.1-2,1.6-3c0.9-1.7,1.9-3.5,2.8-5.2
				C32.9,41.6,33.1,41.2,33.4,40.8z M35,46.7c-0.2-0.8-0.4-1.6-0.6-2.4c0-0.1-0.1-0.1-0.1-0.2c0,0-0.1,0.1-0.1,0.1
				c-0.4,0.8-0.8,1.6-1.3,2.5c0,0,0,0,0,0.1C33.3,46.8,34.7,46.8,35,46.7z"/>
			<path fill="#252122" d="M64.9,50.5c-0.9,0-1.8,0-2.7,0c0,0,0,0,0,0c0,0,0,0,0,0c-0.9-3.2-1.8-6.3-2.7-9.5c0,0,0-0.1,0-0.1
				c0.3-0.1,2.8-0.1,3.2,0c0.5,1.9,0.9,3.8,1.4,5.7c0.3-0.4,0.4-0.8,0.6-1.2c0.2-0.4,0.4-0.8,0.5-1.1c0.2-0.4,0.4-0.7,0.5-1.1
				c0.2-0.4,0.4-0.8,0.5-1.1c0.2-0.4,0.4-0.8,0.6-1.1c1.1,0,2.1,0,3.2,0c0,0.1-0.1,0.2-0.1,0.4c-1.1,2-2.1,4-3.2,6.1
				c-0.5,1-1,1.9-1.5,2.9C65.1,50.2,65,50.3,64.9,50.5z"/>
			<path fill="#252122" d="M76,50.4c-0.3,0.1-6,0.1-6.5,0c0-0.1,0-0.1,0-0.2c0.1-1,0.2-1.9,0.4-2.9c0.1-1,0.2-1.9,0.3-2.9
				c0.1-1,0.2-1.9,0.4-2.9c0-0.3,0.1-0.5,0.1-0.8c0,0,0,0,0.1,0c0,0,0,0,0,0c2,0,4,0,6,0c0.1,0,0.2,0,0.3,0c0,0,0,0,0.1,0
				c0,0.4-0.1,0.8-0.1,1.2c0,0.4-0.1,0.8-0.2,1.2c-0.1,0-0.2,0-0.3,0c-1,0-2,0-3,0c-0.1,0-0.3,0-0.4,0c0,0.1,0,0.2-0.1,0.3
				c0,0.2-0.1,0.5-0.1,0.7c0.1,0.1,0.2,0.1,0.3,0.1c0.8,0,1.5,0,2.3,0c0.1,0,0.3,0,0.4,0c0,0.3-0.2,1.8-0.3,2.3c-0.1,0-0.2,0-0.3,0
				c-0.8,0-1.5,0-2.3,0c-0.1,0-0.3,0-0.4,0c-0.1,0.3-0.2,0.8-0.2,1.1c0.6,0,1.2,0,1.8,0c0.6,0,1.2,0,1.8,0c0,0,0,0.1,0,0.1
				C76.2,48.8,76.1,49.6,76,50.4z"/>
			<path fill="#2BABE2" d="M28.8,40.8C28.9,40.8,28.9,40.9,28.8,40.8c0,0.8-0.1,1.5-0.2,2.2c0,0.1,0,0.2-0.1,0.3
				c-0.3,0.1-0.6,0-0.9,0c-0.3,0-0.6,0-0.9,0s-0.6,0-0.9,0c-0.3,0-0.6,0-0.9,0c-0.1,0.4-0.1,0.7-0.1,1c0.1,0.1,0.2,0.1,0.3,0.1
				c0.7,0,1.5,0,2.2,0c0.1,0,0.3,0,0.4,0c0,0.3-0.1,1.7-0.3,2.3c-0.1,0-0.2,0-0.3,0c-0.8,0-1.5,0-2.3,0c-0.1,0-0.3,0-0.4,0
				c-0.1,0.4-0.1,0.7-0.1,1.1c0.3,0.1,0.6,0,0.9,0c0.3,0,0.6,0,0.9,0c0.3,0,0.6,0,0.9,0c0.3,0,0.6,0,0.9,0c0,0.3-0.2,2-0.3,2.5
				c0,0-0.1,0-0.1,0c-2.1,0-4.1,0-6.2,0c0,0-0.1,0-0.1,0c0,0,0,0,0,0c0,0,0,0,0,0c0.4-3.2,0.8-6.4,1.2-9.6c0.1,0,0.2,0,0.3,0
				c2,0,4,0,5.9,0C28.7,40.8,28.8,40.8,28.8,40.8z"/>
			<path fill="#282425" d="M52,55.3c0.1-1,0.2-2,0.4-3c0.3,0,0.6,0,0.9,0c0.4,0.5,0.6,1,1,1.6c0.1-0.1,0.1-0.2,0.1-0.3
				c0-0.1,0-0.2,0-0.3c0-0.1,0-0.2,0-0.3c0-0.1,0-0.2,0-0.3c0-0.1,0-0.2,0-0.3c0.2,0,0.4,0,0.6,0c0.1,0,0.1,0,0.2,0
				c0,0.3-0.2,1.9-0.3,3c-0.1,0.1-0.3,0-0.4,0c-0.1,0-0.3,0-0.4,0c-0.3-0.5-0.6-1-0.9-1.6c-0.1,0.5-0.1,1-0.2,1.5
				C52.6,55.3,52.3,55.3,52,55.3z"/>
			<path fill="#282425" d="M56.6,55.3c0.1-1,0.2-2,0.4-3c0.1,0,0.2,0,0.2,0c0.3,0,0.7,0,1,0c0.2,0,0.4,0,0.7,0.1
				c0.5,0.2,0.7,0.5,0.8,1c0.1,1-0.6,1.9-1.6,2C57.6,55.3,57.1,55.3,56.6,55.3z M57.6,54.5c0.1,0,0.2,0,0.3,0c0.4,0,0.6-0.2,0.8-0.5
				c0.2-0.4-0.1-0.9-0.6-0.9c-0.1,0-0.2,0-0.4,0C57.7,53.5,57.7,54,57.6,54.5z"/>
			<path fill="#282425" d="M73.8,52.2c0,0,0.1,0,0.1,0c0.4,0,0.8,0,1.1,0c0.1,0,0.3,0,0.4,0c0.5,0.1,0.7,0.5,0.7,0.9
				c0,0.4-0.2,0.7-0.5,1c-0.1,0-0.1,0.1-0.2,0.1c0.1,0.3,0.4,0.6,0.6,1c-0.3,0.1-0.7,0-1,0c-0.2-0.3-0.3-0.7-0.6-1
				c-0.1,0.1-0.1,0.1-0.1,0.2c0,0.1,0,0.2,0,0.4c0,0.1,0,0.3-0.1,0.4c-0.3,0-0.6,0-0.8,0C73.4,54.9,73.7,52.6,73.8,52.2z M74.4,53.6
				c0.2,0,0.3,0,0.5,0c0.1,0,0.2-0.1,0.2-0.1c0.1-0.1,0.1-0.2,0.1-0.4c0-0.1-0.1-0.2-0.2-0.2c-0.2,0-0.3,0-0.5,0
				C74.5,53.2,74.5,53.4,74.4,53.6z"/>
			<path fill="#292627" d="M61.3,52.2c0.3,0,0.6,0,0.9,0c0.1,0.2,0,0.3,0,0.4c-0.1,0.4-0.1,0.9-0.2,1.3c0,0.1,0,0.2,0,0.2
				c0,0.3,0.3,0.4,0.6,0.3c0.2-0.1,0.4-0.2,0.4-0.5c0-0.2,0.1-0.4,0.1-0.5c0.1-0.4,0.1-0.8,0.2-1.3c0.2,0,0.3,0,0.5,0
				c0.1,0,0.3,0,0.4,0c0,0.1,0,0.1,0,0.1c-0.1,0.6-0.1,1.1-0.2,1.7c-0.1,0.9-0.8,1.3-1.5,1.3c-0.1,0-0.2,0-0.4,0
				c-0.7-0.1-1.1-0.6-1.1-1.3c0-0.5,0.1-0.9,0.2-1.4C61.3,52.5,61.3,52.4,61.3,52.2z"/>
			<path fill="#2A2627" d="M66.6,53.1c0.1,0.1,0.2,0.1,0.4,0.2c0.2,0,0.4,0.1,0.6,0.1c0.7,0.2,0.8,0.8,0.5,1.3
				c-0.1,0.3-0.3,0.5-0.6,0.5c-0.7,0.2-1.3,0.2-2-0.2c0,0-0.1-0.1-0.1-0.1c0.1-0.2,0.2-0.5,0.4-0.7c0.1,0.1,0.2,0.1,0.3,0.2
				c0.3,0.1,0.5,0.2,0.8,0.2c0.1,0,0.1,0,0.2,0c0.1,0,0.1-0.1,0.1-0.1c0-0.1,0-0.1-0.1-0.1c-0.1,0-0.3-0.1-0.4-0.1
				c-0.2-0.1-0.4-0.1-0.6-0.2c-0.4-0.2-0.6-0.6-0.4-1.1c0.1-0.3,0.4-0.5,0.7-0.7c0.5-0.2,1-0.2,1.5,0c0.1,0,0.1,0.1,0.2,0.1
				c0,0,0.1,0.1,0.1,0.1c-0.1,0.2-0.2,0.4-0.4,0.6c-0.1,0-0.1,0-0.2-0.1c-0.3-0.1-0.5-0.1-0.8-0.1C66.7,53,66.6,53,66.6,53.1z"/>
			<path fill="#292626" d="M72.2,52.3c0,0.2,0,0.5-0.1,0.8c-0.2,0.1-0.5,0-0.8,0c-0.1,0.4-0.1,0.7-0.2,1.1c-0.1,0.4-0.1,0.7-0.1,1.1
				c-0.3,0-0.6,0-0.9,0c0-0.4,0.1-0.7,0.1-1.1c0-0.4,0.1-0.7,0.1-1.1c-0.3-0.1-0.5,0-0.7,0c-0.1-0.3,0-0.5,0.1-0.8
				C70,52.2,71.8,52.2,72.2,52.3z"/>
			<path fill="#292627" d="M49.9,52.2c0.3,0,0.5,0,0.8,0c0,0.5-0.1,1-0.2,1.5c0,0.5-0.1,1-0.2,1.5c-0.3,0-0.6,0-0.8,0
				C49.5,55,49.7,52.8,49.9,52.2z"/>
			<path fill="#292526" d="M78,52.2c0.3,0,0.6,0,0.8,0c0,0.1,0,0.1,0,0.2c-0.1,0.6-0.1,1.1-0.2,1.7c0,0.4-0.1,0.7-0.1,1.1
				c-0.1,0.1-0.3,0-0.4,0c-0.1,0-0.3,0-0.5,0C77.7,54.3,77.8,53.3,78,52.2z"/>
			<g>
				<path fill="#60B3E3" d="M42.6,55.2c-0.9,0.1-2,0.1-3.4,0.5c-0.7,0.2-2,0.4-3.5,1.1c-0.7,0.3-0.5,0.3-2.2,1.2
					c-1.2,0.6-2,1.1-3.1,1.5c-1.3,0.6-2,0.9-2.8,1c-0.8,0.2-2.1,0.3-3.5,0c-0.5-0.1-1.1-0.2-1.9-0.6c-0.9-0.5-1.5-1.1-1.8-1.5
					c0.2,0,0.4,0,0.7,0c1-0.1,2.3-0.1,3.7-0.6c0.4-0.1,0.8-0.3,1.6-0.6c0.1,0,0.8-0.3,1.6-0.7c1.9-0.9,3.9-1.9,4-2
					c0,0,3.2-1.7,5-2.6c0.2-0.1,0.6-0.3,1.2-0.3c0.3,0,0.6,0,0.9,0c0.6,0,1.4,0.1,2.4,0.3c1.2,0.3,2,0.7,2.4,0.9
					c0.2,0.1,1,0.6,2,1.4c0.5,0.4,0.8,0.7,1.1,1C45.3,55.1,43.7,55.1,42.6,55.2z"/>
				<path fill="#2BABE2" d="M11.5,55c1.1-0.3,1.5-0.3,1.5-0.3c0.5-0.1,0.9-0.1,1.2-0.1c0.8,0,1.4,0,1.7,0.1c1,0.1,1.8,0.3,2.2,0.5
					c0.4,0.1,1,0.4,2.3,0.9c0.7,0.3,0.8,0.3,1.1,0.4c0.4,0.1,1.1,0.4,1.9,0.5c0.6,0.1,1.6,0.3,3,0.2c1.2-0.1,2-0.4,2.2-0.5
					c0.4-0.2,0.7-0.3,1.4-0.7c1.1-0.6,1.7-1,2.8-1.7c1.5-0.9,2.2-1.4,2.9-1.7c1.1-0.5,1.9-0.8,1.9-0.9c0-0.1-0.8,0-1.3,0.1
					c-0.7,0.2-1.2,0.3-1.2,0.4c-1.1,0.4-2.4,0.8-3.6,1.1c-1.4,0.3-2.4,0.6-3.8,0.6c-1.6,0-2.8-0.3-3.5-0.5c-1-0.2-1.1-0.4-2.7-0.8
					c-1.1-0.3-1.6-0.4-2.2-0.5c-0.6-0.1-1.7-0.2-3.1,0.1c-0.5,0.1-1.2,0.3-2,0.7C12.6,53.7,11.5,55,11.5,55z"/>
			</g>
		</g>
	</g>
</g>
</svg>
